<svg xmlns="http://www.w3.org/2000/svg" x="0px" y="0px"
width="50" height="50"
viewBox="0 0 172 172"
style=" fill:#000000;"><g fill="none" fill-rule="nonzero" stroke="none" stroke-width="1" stroke-linecap="butt" stroke-linejoin="miter" stroke-miterlimit="10" stroke-dasharray="" stroke-dashoffset="0" font-family="none" font-weight="none" font-size="none" text-anchor="none" style="mix-blend-mode: normal"><path d="M0,172v-172h172v172z" fill="none"></path><g fill="#4c4766"><path d="M37.84,13.76c-13.416,0 -24.08,10.664 -24.08,24.08v96.32c0,13.416 10.664,24.08 24.08,24.08h96.32c13.416,0 24.08,-10.664 24.08,-24.08v-82.90265l-6.88,8.25734v74.64531c0,9.632 -7.568,17.2 -17.2,17.2h-96.32c-9.632,0 -17.2,-7.568 -17.2,-17.2v-96.32c0,-9.632 7.568,-17.2 17.2,-17.2h90.12531l5.85203,-6.88zM148.73297,26.67344l-66.4686,78.43469l-27.97687,-26.09563l-4.68969,5.03235l33.25109,31.01375l71.13813,-83.93735z"></path></g></g></svg>