<svg xmlns="http://www.w3.org/2000/svg" x="0px" y="0px"
width="28" height="28"
viewBox="0 0 172 172"
style=" fill:#000000;"><g fill="none" fill-rule="nonzero" stroke="none" stroke-width="1" stroke-linecap="butt" stroke-linejoin="miter" stroke-miterlimit="10" stroke-dasharray="" stroke-dashoffset="0" font-family="none" font-weight="none" font-size="none" text-anchor="none" style="mix-blend-mode: normal"><path d="M0,172v-172h172v172z" fill="none"></path><g fill="#4c4766"><path d="M45.4725,18.49l-20.1025,25.6925l-9.3525,-8.2775l-4.515,5.16l12.04,10.75l2.6875,2.365l2.2575,-2.9025l22.36,-28.4875zM65.36,34.4v6.88h92.88v-6.88zM45.4725,66.65l-20.1025,25.6925l-9.3525,-8.2775l-4.515,5.16l12.04,10.75l2.6875,2.365l2.2575,-2.9025l22.36,-28.4875zM65.36,82.56v6.88h92.88v-6.88zM45.4725,114.81l-20.1025,25.6925l-9.3525,-8.2775l-4.515,5.16l12.04,10.75l2.6875,2.365l2.2575,-2.9025l22.36,-28.4875zM65.36,130.72v6.88h92.88v-6.88z"></path></g></g></svg>